<svg width="0" height="0" class="hidden">
  <symbol version="1.1" xmlns="http://www.w3.org/2000/svg" xmlns:xlink="http://www.w3.org/1999/xlink" xmlnsSketch="http://www.bohemiancoding.com/sketch/ns" viewBox="-5.5 0 26 26" id="chevron-left">
    <g id="Page-1" stroke="none" stroke-width="1"  fill-rule="evenodd" sketchType="MSPage">
      <g id="Icon-Set-Filled" sketchType="MSLayerGroup" transform="translate(-423.000000, -1196.000000)" >
        <path d="M428.115,1209 L437.371,1200.6 C438.202,1199.77 438.202,1198.43 437.371,1197.6 C436.541,1196.76 435.194,1196.76 434.363,1197.6 L423.596,1207.36 C423.146,1207.81 422.948,1208.41 422.985,1209 C422.948,1209.59 423.146,1210.19 423.596,1210.64 L434.363,1220.4 C435.194,1221.24 436.541,1221.24 437.371,1220.4 C438.202,1219.57 438.202,1218.23 437.371,1217.4 L428.115,1209" id="chevron-left" sketchType="MSShapeGroup"></path>
      </g>
    </g>
  </symbol>

  <symbol version="1.1" xmlns="http://www.w3.org/2000/svg" xmlns:xlink="http://www.w3.org/1999/xlink" xmlnsSketch="http://www.bohemiancoding.com/sketch/ns" viewBox="-5.5 0 26 26" id="chevron-right">
    <g id="Page-1" stroke="none" stroke-width="1"  fill-rule="evenodd" sketchType="MSPage">
      <g id="Icon-Set-Filled" sketchType="MSLayerGroup" transform="translate(-474.000000, -1196.000000)" >
        <path d="M488.404,1207.36 L477.637,1197.6 C476.806,1196.76 475.459,1196.76 474.629,1197.6 C473.798,1198.43 473.798,1199.77 474.629,1200.6 L483.885,1209 L474.629,1217.4 C473.798,1218.23 473.798,1219.57 474.629,1220.4 C475.459,1221.24 476.806,1221.24 477.637,1220.4 L488.404,1210.64 C488.854,1210.19 489.052,1209.59 489.015,1209 C489.052,1208.41 488.854,1207.81 488.404,1207.36" id="chevron-right" sketchType="MSShapeGroup"></path>
      </g>
    </g>
  </symbol>

  <symbol fill="none" xmlns="http://www.w3.org/2000/svg" viewBox="0 0 24 24" id="chevron-up">
    <path d="M6 15L12 9L18 15" stroke="#000000" stroke-width="2" stroke-linecap="round" stroke-linejoin="round"></path>
  </symbol>
  <symbol fill="none" xmlns="http://www.w3.org/2000/svg" viewBox="0 0 24 24" id="chevron-down">
    <path d="M6 9L12 15L18 9" stroke="#000000" stroke-width="2" stroke-linecap="round" stroke-linejoin="round"></path>
  </symbol>
  <symbol version="1.1" id="email" xmlns="http://www.w3.org/2000/svg" xmlns:xlink="http://www.w3.org/1999/xlink" xml:space="preserve" viewBox="0 0 392.582 392.582">
    <g>
      <g>
        <path d="M380.986,146.343l-49.778-42.214V58.941c0-6.012-4.848-10.925-10.925-10.925h-55.467
			c-0.259-0.259-47.321-40.21-47.321-40.21c-12.283-10.408-30.125-10.408-42.408,0l-47.451,40.21H72.299
			c-6.012,0-10.925,4.849-10.925,10.925v45.188l-49.842,42.214c-7.24,6.206-11.507,15.321-11.507,25.018v0.065v188.315
			c0,18.101,14.739,32.84,32.84,32.84h326.853c18.101,0,32.84-14.739,32.84-32.84v-188.38
			C392.558,161.665,388.291,152.549,380.986,146.343z M331.143,132.703l35.685,30.255c2.521,2.133,3.879,5.107,3.879,8.404
			c0,3.297-1.422,6.271-3.879,8.404l-35.685,30.19V132.703z M189.18,24.485c4.073-3.491,10.149-3.491,14.222,0L231.2,48.081h-69.818
			L189.18,24.485z M83.224,69.802h226.133v158.642l-105.955,89.794c-4.073,3.491-10.15,3.491-14.287,0L83.224,228.509V69.802z
			 M21.875,171.362c0-3.297,1.422-6.271,3.879-8.404l35.685-30.255v77.253l-35.685-30.19c-2.457-2.069-3.879-5.107-3.879-8.339
			V171.362z M21.81,358.772v-40.081h20.04c6.012,0,10.925-4.848,10.925-10.925S47.863,296.84,41.85,296.84H21.81v-16.097h40.598
			c6.012,0,10.925-4.849,10.925-10.925c0-6.012-4.848-10.925-10.925-10.925H21.81v-53.915l90.699,76.8L21.81,358.772z
			 M41.333,370.861l88.049-74.602l45.64,38.723c6.206,5.172,13.705,7.822,21.269,7.822c7.564,0,15.063-2.651,21.269-7.822
			l49.519-41.956l91.863,77.834H41.333z M370.772,352.242l-86.885-73.632l86.885-73.568V352.242z"></path>
      </g>
    </g>
    <g>
      <g>
        <path d="M279.038,101.414H113.543c-6.012,0-10.925,4.849-10.925,10.925c0,6.077,4.913,10.925,10.925,10.925h165.495
			c6.012,0,10.925-4.849,10.925-10.925C289.964,106.327,285.115,101.414,279.038,101.414z"></path>
      </g>
    </g>
    <g>
      <g>
        <path d="M279.038,156.299H113.543c-6.012,0-10.925,4.849-10.925,10.925c0,6.077,4.913,10.925,10.925,10.925h165.495
			c6.012,0,10.925-4.849,10.925-10.925C289.964,161.212,285.115,156.299,279.038,156.299z"></path>
      </g>
    </g>
    <g>
      <g>
        <path d="M257.059,211.248H135.523c-6.012,0-10.925,4.848-10.925,10.925s4.849,10.925,10.925,10.925h121.535
			c6.012,0,10.925-4.848,10.925-10.925S263.071,211.248,257.059,211.248z"></path>
      </g>
    </g>
  </symbol>
  <symbol xmlns="http://www.w3.org/2000/svg" viewBox="0 0 24 24" id="linkedin">
    <path d="M6.5 8C7.32843 8 8 7.32843 8 6.5C8 5.67157 7.32843 5 6.5 5C5.67157 5 5 5.67157 5 6.5C5 7.32843 5.67157 8 6.5 8Z" ></path>
    <path d="M5 10C5 9.44772 5.44772 9 6 9H7C7.55228 9 8 9.44771 8 10V18C8 18.5523 7.55228 19 7 19H6C5.44772 19 5 18.5523 5 18V10Z" ></path>
    <path d="M11 19H12C12.5523 19 13 18.5523 13 18V13.5C13 12 16 11 16 13V18.0004C16 18.5527 16.4477 19 17 19H18C18.5523 19 19 18.5523 19 18V12C19 10 17.5 9 15.5 9C13.5 9 13 10.5 13 10.5V10C13 9.44771 12.5523 9 12 9H11C10.4477 9 10 9.44772 10 10V18C10 18.5523 10.4477 19 11 19Z" ></path>
    <path fill-rule="evenodd" clip-rule="evenodd" d="M20 1C21.6569 1 23 2.34315 23 4V20C23 21.6569 21.6569 23 20 23H4C2.34315 23 1 21.6569 1 20V4C1 2.34315 2.34315 1 4 1H20ZM20 3C20.5523 3 21 3.44772 21 4V20C21 20.5523 20.5523 21 20 21H4C3.44772 21 3 20.5523 3 20V4C3 3.44772 3.44772 3 4 3H20Z" ></path>
  </symbol>
</svg>